<?xml version="1.0" encoding="UTF-8" standalone="no"?>
<svg
   width="140.02217mm"
   height="140.02217mm"
   viewBox="0 0 140.02217 140.02217"
   version="1.1"
   id="svg2873"
   inkscape:version="1.2.2 (b0a8486541, 2022-12-01)"
   sodipodi:docname="input-remapper.svg"
   inkscape:export-filename="../data/input-remapper-large.png"
   inkscape:export-xdpi="23.219999"
   inkscape:export-ydpi="23.219999"
   xmlns:inkscape="http://www.inkscape.org/namespaces/inkscape"
   xmlns:sodipodi="http://sodipodi.sourceforge.net/DTD/sodipodi-0.dtd"
   xmlns:xlink="http://www.w3.org/1999/xlink"
   xmlns="http://www.w3.org/2000/svg"
   xmlns:svg="http://www.w3.org/2000/svg"
   xmlns:rdf="http://www.w3.org/1999/02/22-rdf-syntax-ns#"
   xmlns:cc="http://creativecommons.org/ns#"
   xmlns:dc="http://purl.org/dc/elements/1.1/">
  <defs
     id="defs2867">
    <linearGradient
       inkscape:collect="always"
       id="linearGradient2144">
      <stop
         style="stop-color:#ee628b;stop-opacity:1;"
         offset="0"
         id="stop2140" />
      <stop
         style="stop-color:#b34aa6;stop-opacity:1;"
         offset="0.56871039"
         id="stop2148" />
      <stop
         style="stop-color:#7531c4;stop-opacity:1;"
         offset="1"
         id="stop2142" />
    </linearGradient>
    <linearGradient
       inkscape:collect="always"
       id="linearGradient2085">
      <stop
         style="stop-color:#005a76;stop-opacity:1;"
         offset="0"
         id="stop2081" />
      <stop
         style="stop-color:#a00049;stop-opacity:1;"
         offset="1"
         id="stop2083" />
    </linearGradient>
    <linearGradient
       inkscape:collect="always"
       id="linearGradient2021">
      <stop
         style="stop-color:#38a4c4;stop-opacity:1;"
         offset="0"
         id="stop2017" />
      <stop
         style="stop-color:#cbe8ff;stop-opacity:1;"
         offset="1"
         id="stop2019" />
    </linearGradient>
    <filter
       style="color-interpolation-filters:sRGB;"
       inkscape:label="Drop Shadow"
       id="filter1980"
       x="-0.019841487"
       y="-0.01801877"
       width="1.039683"
       height="1.0435454">
      <feFlood
         flood-opacity="0.25098"
         flood-color="rgb(0,0,0)"
         result="flood"
         id="feFlood1970" />
      <feComposite
         in="flood"
         in2="SourceGraphic"
         operator="in"
         result="composite1"
         id="feComposite1972" />
      <feGaussianBlur
         in="composite1"
         stdDeviation="1"
         result="blur"
         id="feGaussianBlur1974" />
      <feOffset
         dx="0"
         dy="1"
         result="offset"
         id="feOffset1976" />
      <feComposite
         in="SourceGraphic"
         in2="offset"
         operator="over"
         result="composite2"
         id="feComposite1978" />
    </filter>
    <linearGradient
       inkscape:collect="always"
       xlink:href="#linearGradient2021"
       id="linearGradient2023"
       x1="226.8387"
       y1="35.980072"
       x2="285.77728"
       y2="166.38808"
       gradientUnits="userSpaceOnUse"
       gradientTransform="matrix(0.95542849,0,0,0.95542849,11.339536,5.8796979)" />
    <linearGradient
       inkscape:collect="always"
       xlink:href="#linearGradient2085"
       id="linearGradient2089"
       x1="275.09396"
       y1="41.656914"
       x2="270.55231"
       y2="103.77784"
       gradientUnits="userSpaceOnUse"
       gradientTransform="matrix(1.054711,-0.31934424,0.31934424,1.054711,-45.053843,142.57537)" />
    <linearGradient
       inkscape:collect="always"
       xlink:href="#linearGradient2144"
       id="linearGradient2146"
       x1="265.45206"
       y1="164.32022"
       x2="223.63274"
       y2="95.293495"
       gradientUnits="userSpaceOnUse"
       gradientTransform="rotate(17.765376,437.12899,128.91466)" />
  </defs>
  <sodipodi:namedview
     id="base"
     pagecolor="#ffffff"
     bordercolor="#666666"
     borderopacity="1.0"
     inkscape:pageopacity="0.0"
     inkscape:pageshadow="2"
     inkscape:zoom="0.66952443"
     inkscape:cx="-2.2403962"
     inkscape:cy="114.26021"
     inkscape:document-units="mm"
     inkscape:current-layer="g1932"
     inkscape:document-rotation="0"
     showgrid="false"
     fit-margin-top="0"
     fit-margin-left="0"
     fit-margin-right="0"
     fit-margin-bottom="0"
     inkscape:window-width="1920"
     inkscape:window-height="1113"
     inkscape:window-x="0"
     inkscape:window-y="0"
     inkscape:window-maximized="1"
     inkscape:showpageshadow="0"
     inkscape:pagecheckerboard="0"
     inkscape:deskcolor="#d1d1d1" />
  <metadata
     id="metadata2870">
    <rdf:RDF>
      <cc:Work
         rdf:about="">
        <dc:format>image/svg+xml</dc:format>
        <dc:type
           rdf:resource="http://purl.org/dc/dcmitype/StillImage" />
      </cc:Work>
    </rdf:RDF>
  </metadata>
  <g
     inkscape:label="Layer 1"
     inkscape:groupmode="layer"
     id="layer1"
     transform="translate(-186.12124,-30.970871)">
    <path
       style="fill:url(#linearGradient2023);fill-opacity:1;fill-rule:nonzero;stroke:none;stroke-width:0.538446;stroke-linejoin:round;stroke-miterlimit:4;stroke-dasharray:none;stroke-opacity:1"
       id="path3680"
       sodipodi:type="arc"
       sodipodi:cx="256.05566"
       sodipodi:cy="102.36073"
       sodipodi:rx="66.890587"
       sodipodi:ry="66.890587"
       sodipodi:start="0.11227764"
       sodipodi:end="0.10993049"
       sodipodi:arc-type="arc"
       d="m 322.52507,109.85528 a 66.890587,66.890587 0 0 1 -73.92495,58.97925 66.890587,66.890587 0 0 1 -59.02261,-73.890333 66.890587,66.890587 0 0 1 73.85568,-59.065963 66.890587,66.890587 0 0 1 59.10929,73.821016"
       sodipodi:open="true" />
    <g
       id="g1932"
       inkscape:label="key n pad"
       transform="matrix(1.0680039,0,0,1.0680039,-17.494668,-5.4883885)">
      <ellipse
         style="fill:#ee628b;fill-opacity:1;fill-rule:nonzero;stroke:none;stroke-width:0.933566;stroke-linejoin:round;stroke-miterlimit:4;stroke-dasharray:none;stroke-opacity:1"
         id="path3702"
         cx="229.27661"
         cy="203.38077"
         rx="8.1979532"
         ry="8.2254095"
         transform="rotate(-16.845205)" />
      <path
         id="rect3031-2-3-7"
         style="fill:url(#linearGradient2089);fill-opacity:1;stroke:none;stroke-width:1.56982;stroke-miterlimit:4;stroke-dasharray:none;stroke-opacity:1"
         d="m 219.42531,102.65433 c -16.41828,1.26473 -28.7079,15.60645 -27.4432,32.02471 1.26471,16.41826 15.60583,28.70798 32.0241,27.44326 10.44047,-0.80424 19.2105,-6.89726 23.88824,-15.44872 l 19.06877,-1.46889 c 5.93223,7.73412 15.53139,12.41214 25.97181,11.60791 16.41829,-1.26472 28.70797,-15.60583 27.44326,-32.02409 -1.2697,-16.48291 -15.60589,-28.708522 -32.02415,-27.443806 -0.14429,0.01062 -0.2873,0.02618 -0.43092,0.03916 l -68.06607,5.243166 c -0.14396,0.009 -0.2876,0.0162 -0.43188,0.0268 z m -1.40054,12.38288 4.2224,-0.32524 c 0.95846,-0.0738 1.86674,0.37857 2.41795,0.98872 0.55122,0.61013 0.83585,1.36517 0.89688,2.15727 l 2.05325,6.8304 7.06426,0.98289 c 0.78686,0.10947 1.57951,0.10265 2.26687,0.5539 0.68736,0.45124 1.2757,1.27934 1.34954,2.23783 l 0.32525,4.22242 c 0.0738,0.95852 -0.38075,1.86693 -0.9909,2.41812 -0.61013,0.55122 -1.363,0.83568 -2.15512,0.8967 l -6.83042,2.05315 -0.98305,7.0621 c -0.10953,0.7869 -0.10465,1.58185 -0.55588,2.26921 -0.45127,0.68735 -1.27936,1.27571 -2.23786,1.34954 l -4.22241,0.32525 c -0.95849,0.0738 -1.86693,-0.38074 -2.41812,-0.99089 -0.55121,-0.61011 -0.83368,-1.36532 -0.8947,-2.15745 l -2.05305,-6.82823 -7.0643,-0.98288 c -0.78687,-0.10949 -1.58179,-0.10464 -2.26917,-0.55591 -0.68736,-0.45125 -1.27354,-1.27952 -1.34737,-2.238 l -0.32535,-4.22241 c -0.0738,-0.95847 0.37858,-1.86673 0.98873,-2.41795 0.61013,-0.55122 1.36532,-0.83369 2.15744,-0.8947 l 6.83042,-2.05315 0.98289,-7.06425 c 0.10949,-0.7869 0.10248,-1.58168 0.55374,-2.26905 0.45126,-0.68735 1.27952,-1.27353 2.238,-1.34736 z m 71.37335,-7.34066 c 3.66499,-0.28223 6.87286,2.46669 7.15518,6.13167 0.28224,3.66502 -2.46668,6.87287 -6.13168,7.15518 -3.66498,0.28223 -6.87287,-2.46665 -7.15519,-6.13168 -0.28233,-3.66497 2.46669,-6.87285 6.13169,-7.15517 z m -11.50875,13.58408 c 3.66491,-0.28233 6.8728,2.46608 7.15513,6.13106 0.28234,3.66502 -2.46668,6.87288 -6.13169,7.15519 -3.66497,0.28233 -6.87286,-2.46668 -7.15518,-6.13168 -0.28223,-3.66498 2.4668,-6.87226 6.13174,-7.15457 z m 24.96219,-1.92288 c 3.66489,-0.28232 6.87282,2.4661 7.15513,6.13108 0.28234,3.66501 -2.4667,6.87288 -6.13169,7.15519 -3.66499,0.28233 -6.87287,-2.46668 -7.15517,-6.13171 -0.28223,-3.66497 2.4668,-6.87225 6.13173,-7.15456 z m -11.45463,13.36665 c 3.6649,-0.28233 6.87283,2.46608 7.15514,6.13108 0.28223,3.66496 -2.46669,6.87284 -6.13168,7.15517 -3.66498,0.28233 -6.87287,-2.4667 -7.15517,-6.13167 -0.28244,-3.66498 2.46682,-6.87228 6.13171,-7.15458 z"
         sodipodi:nodetypes="sssccsssccssssscsssssscsssssscsssssscsssssssssssssssssssssss" />
      <ellipse
         style="fill:#005a76;fill-opacity:1;fill-rule:nonzero;stroke:none;stroke-width:0.893247;stroke-linejoin:round;stroke-miterlimit:4;stroke-dasharray:none;stroke-opacity:1"
         id="path3704"
         cx="263.94208"
         cy="-29.849186"
         rx="10.779231"
         ry="9.3496962"
         transform="rotate(17.765376)" />
      <path
         id="path1873-2-8"
         style="color:#000000;font-style:normal;font-variant:normal;font-weight:normal;font-stretch:normal;font-size:medium;line-height:normal;font-family:sans-serif;font-variant-ligatures:normal;font-variant-position:normal;font-variant-caps:normal;font-variant-numeric:normal;font-variant-alternates:normal;font-variant-east-asian:normal;font-feature-settings:normal;font-variation-settings:normal;text-indent:0;text-align:start;text-decoration:none;text-decoration-line:none;text-decoration-style:solid;text-decoration-color:#000000;letter-spacing:normal;word-spacing:normal;text-transform:none;writing-mode:lr-tb;direction:ltr;text-orientation:mixed;dominant-baseline:auto;baseline-shift:baseline;text-anchor:start;white-space:normal;shape-padding:0;shape-margin:0;inline-size:0;clip-rule:nonzero;display:inline;overflow:visible;visibility:visible;isolation:auto;mix-blend-mode:normal;color-interpolation:sRGB;color-interpolation-filters:linearRGB;solid-color:#000000;solid-opacity:1;vector-effect:none;fill:url(#linearGradient2146);fill-opacity:1;fill-rule:nonzero;stroke:none;stroke-width:1.12845;stroke-linecap:butt;stroke-linejoin:round;stroke-miterlimit:4;stroke-dasharray:none;stroke-dashoffset:0;stroke-opacity:1;color-rendering:auto;image-rendering:auto;shape-rendering:auto;text-rendering:auto;enable-background:accumulate;stop-color:#000000"
         d="m 250.24887,35.499557 c -1.78889,-0.166794 -3.37456,1.148415 -3.54133,2.937328 l -2.20385,23.639024 c -0.16679,1.788903 1.14846,3.373947 2.93737,3.540722 l 23.639,2.203862 c 1.78889,0.16679 3.37392,-1.147888 3.54067,-2.936775 l 2.20389,-23.639027 c 0.16678,-1.788901 -1.14785,-3.374509 -2.93673,-3.54129 z m 11.18772,10.12449 c 0.54697,0.03864 1.03084,0.368609 1.26468,0.864662 l 4.53089,9.597533 c 0.49976,1.060328 -0.34199,2.261945 -1.50919,2.153959 l -10.75901,-1.003038 c -1.16706,-0.109622 -1.77276,-1.44623 -1.08564,-2.395902 l 6.22753,-8.594536 c 0.30643,-0.423425 0.80932,-0.658595 1.33074,-0.622678 z m -48.75272,20.725987 c -1.7889,-0.166803 -3.3745,1.147838 -3.54126,2.936722 l -2.20387,23.639038 c -0.16678,1.788869 1.14844,3.37453 2.93732,3.541308 l 23.63902,2.203846 c 1.78889,0.1668 3.37399,-1.148464 3.54074,-2.93737 l 2.20386,-23.639013 c 0.1668,-1.788891 -1.14789,-3.3739 -2.9368,-3.540675 z m 34.38991,3.206163 c -1.78892,-0.166797 -3.37451,1.147838 -3.54125,2.936725 l -2.2039,23.639023 c -0.16678,1.788875 1.14843,3.37454 2.93734,3.54132 l 23.639,2.203815 c 1.78889,0.16679 3.37397,-1.14846 3.54074,-2.937347 l 2.20386,-23.639021 c 0.16678,-1.788885 -1.14789,-3.373881 -2.9368,-3.540665 z m 34.0955,3.178716 c -1.78892,-0.166797 -3.37391,1.147881 -3.54068,2.936781 l -2.20387,23.639005 c -0.16678,1.788881 1.14784,3.374451 2.93675,3.541231 l 23.63901,2.20386 c 1.78888,0.16679 3.37455,-1.14842 3.54133,-2.93732 l 2.20385,-23.638964 c 0.16679,-1.788894 -1.14848,-3.373966 -2.93736,-3.540732 z m 7.70879,8.962597 c 0.26806,0.02529 0.52396,0.121462 0.74242,0.278823 l 8.59458,6.227542 c 0.93167,0.676009 0.7986,2.103276 -0.24197,2.595406 l -9.59763,4.531472 c -1.0611,0.502539 -2.2655,-0.341044 -2.15623,-1.510018 l 1.00279,-10.756092 c 0.078,-0.83556 0.82082,-1.448455 1.65606,-1.36718 z m -61.32169,-5.7164 c 0.84649,0.06143 1.47748,0.806339 1.39865,1.651396 l -1.00279,10.756082 c -0.10959,1.167096 -1.44621,1.772782 -2.39587,1.085652 l -8.59456,-6.227568 c -0.93168,-0.676021 -0.79867,-2.10269 0.24192,-2.594823 l 9.59762,-4.531471 c 0.23567,-0.110722 0.49545,-0.158938 0.75503,-0.139277 z m 25.36167,3.200826 10.75899,1.003051 c 1.16703,0.109708 1.77276,1.446198 1.08562,2.395864 l -6.22768,8.596293 c -0.67604,0.931665 -2.10326,0.798629 -2.5954,-0.241955 l -4.53154,-9.597049 c -0.50252,-1.061064 0.34102,-2.2655 1.51001,-2.156204 z" />
    </g>
  </g>
</svg>
